<?xml version="1.0" encoding="utf-8"?>
<!-- Generator: Adobe Illustrator 26.5.0, SVG Export Plug-In . SVG Version: 6.00 Build 0)  -->
<svg version="1.1" id="Camada_1" xmlns="http://www.w3.org/2000/svg" xmlns:xlink="http://www.w3.org/1999/xlink" x="0px" y="0px"
	 viewBox="0 0 966 156" style="enable-background:new 0 0 966 156;" xml:space="preserve">
<style type="text/css">
	.st0{display:none;}
	.st1{display:inline;fill:none;stroke:#fff;stroke-miterlimit:10;}
	.st2{fill:#fff;stroke:#fff;stroke-miterlimit:10;}
	.st3{fill:#fff;}
</style>
<g id="Camada_1_00000017485087818007568610000017980419212624884411_" class="st0">
	<line class="st1" x1="8.61" y1="-457.62" x2="8.61" y2="616.54"/>
	<line class="st1" x1="793.41" y1="-463.46" x2="793.41" y2="616.54"/>
	<line class="st1" x1="818.7" y1="-463.46" x2="818.7" y2="616.54"/>
	<line class="st1" x1="958.03" y1="-460.54" x2="958.03" y2="619.46"/>
</g>
<g id="Camada_4">
	<path class="st2" d="M953.59,8.12L821.37,41.95c-2.65,0.68-3.57,3.97-1.66,5.93l72.92,24.14l22.49,73.44
		c1.91,1.96,5.23,1.11,5.96-1.53l36.81-131.42C958.63,9.89,956.24,7.45,953.59,8.12z"/>
	<path class="st2" d="M841.24,123.97l52.5-13.43c1.05-0.27,1.42-1.58,0.66-2.35l-9.17-28.92l-28.71-9.83
		c-0.76-0.78-2.07-0.44-2.37,0.61l-14.62,52.18C839.24,123.27,840.19,124.24,841.24,123.97z"/>
</g>
<g id="Camada_3" class="st0">
	<line class="st1" x1="-267.88" y1="6.54" x2="1247.51" y2="6.54"/>
	<line class="st1" x1="-267.88" y1="146.54" x2="1247.51" y2="146.54"/>
</g>
<g id="Camada_2_00000162327898150174278480000008311336438060125347_">
	<g>
		<path class="st3" d="M128.61,6.54c24.2,0,34.4,12.2,30.2,36.8l-3.4,19.2c-4,23.4-13.2,32-35.4,32.8l25.6,51.2h-35.2l-23.6-48.8
			h-35.2l-8.6,48.8H8.61l24.8-140H128.61z M123.81,46.74c1.8-10.6-1.4-14.6-12-14.6h-48.6l-7.2,40.8h50c10.4,0,13.4-3,15.6-13.4
			L123.81,46.74z"/>
		<path class="st3" d="M194.01,146.54c-24.6,0-34.6-12.4-30.4-37l6.4-36.6c2.2-12.2,6-20.8,11.8-25.6c5.6-4.8,14.6-7.2,26.8-7.2
			h48.2c24.6,0,34.6,12.4,30.4,37l-6.4,36.6c-2.2,12.2-6,20.8-11.6,25.6c-5.8,4.8-14.8,7.2-27,7.2L194.01,146.54L194.01,146.54z
			 M233.81,120.54c10.6,0,13.8-2.8,15.6-13.2l4.8-26.6c1.8-10.6-1.6-14.6-12.2-14.6h-25c-10.6,0-13.8,2.8-15.6,13.2l-4.8,26.6
			c-1.8,10.6,1.6,14.6,12.2,14.6H233.81z"/>
		<path class="st3" d="M330.41,146.54c-24.6,0-34.6-12.4-30.4-37l6.4-36.6c2.2-12.2,6-20.8,11.8-25.6c5.6-4.8,14.6-7.2,26.8-7.2h43
			c24,0,34.2,12.4,30.4,37l-1,6.8h-31.4l0.6-3.2c1.6-10.6-1.6-14.6-12.2-14.6h-21c-10.6,0-13.8,2.8-15.6,13.2l-4.8,26.6
			c-1.8,10.6,1.6,14.6,12.2,14.6h21c10.6,0,13.8-2.8,15.6-13.2l1-5.8h31.4l-2.2,12.2c-2.2,12.4-6,21-11.6,25.6
			c-5.8,4.8-14.8,7.2-27,7.2L330.41,146.54L330.41,146.54z"/>
		<path class="st3" d="M566.81,40.14l-63.2,53.6l45.8,52.8h-42l-39.8-50.6l-9,50.6h-32.4l24.8-140h32.4l-14.8,83.2l53.2-49.6H566.81
			z"/>
		<path class="st3" d="M651.61,40.14c24.2,0,34,11.4,29.8,36.2l-3.8,22.4h-83.4l-1.4,8.4c-1.8,10.6,1,14.2,11.6,14.2h27.2
			c8.2,0,11-2.6,12.6-10.8l0.6-3.2h31.4l-2,10.6c-4,21-12.8,28.6-33.4,28.6h-51.2c-24,0-34-12.2-29.8-36.4l6.4-36.8
			c4.2-24.6,14.4-33.2,39-33.2L651.61,40.14L651.61,40.14z M597.61,79.14h52.2l0.2-1.8c1.8-10.6-1-14-11.6-14h-24.6
			c-10.4,0-14,3-15.8,13.4L597.61,79.14z"/>
		<path class="st3" d="M748.41,65.54l-7.6,43.6c-1.4,8.2,1,11.4,9.6,11.4h29l-4.6,26h-41.8c-21,0-29.6-10.4-25.8-31.2l8.8-49.8
			h-20.4l4.4-25.4h20.4l10.8-24h26l-4.2,24h40.4l-4.4,25.4H748.41z"/>
	</g>
</g>
</svg>
